<mxfile host="app.diagrams.net" modified="2024-05-16T04:45:08.967Z" agent="Mozilla/5.0 (Windows NT 10.0; Win64; x64) AppleWebKit/537.36 (KHTML, like Gecko) Chrome/124.0.0.0 Safari/537.36" etag="VxgaI8jOd7KSG10hMpCg" version="24.4.2" type="device">
  <diagram name="Page-1" id="ehe23IGDnyQGLRyL69Fk">
    <mxGraphModel dx="2049" dy="634" grid="1" gridSize="10" guides="1" tooltips="1" connect="1" arrows="1" fold="1" page="1" pageScale="1" pageWidth="827" pageHeight="1169" math="0" shadow="0">
      <root>
        <mxCell id="0" />
        <mxCell id="1" parent="0" />
        <mxCell id="4mDx-4fVDPnIyOVA0Ng8-31" value="User" style="swimlane;whiteSpace=wrap;html=1;" vertex="1" parent="1">
          <mxGeometry x="-500" y="29" width="200" height="1241" as="geometry" />
        </mxCell>
        <mxCell id="4mDx-4fVDPnIyOVA0Ng8-32" value="" style="edgeStyle=orthogonalEdgeStyle;rounded=0;orthogonalLoop=1;jettySize=auto;html=1;" edge="1" parent="4mDx-4fVDPnIyOVA0Ng8-31" source="4mDx-4fVDPnIyOVA0Ng8-33" target="4mDx-4fVDPnIyOVA0Ng8-36">
          <mxGeometry relative="1" as="geometry" />
        </mxCell>
        <mxCell id="4mDx-4fVDPnIyOVA0Ng8-33" value="&lt;span data-lucid-content=&quot;{&amp;quot;t&amp;quot;:&amp;quot;User navigates to the sign up page&amp;quot;,&amp;quot;m&amp;quot;:[{&amp;quot;s&amp;quot;:0,&amp;quot;n&amp;quot;:&amp;quot;s&amp;quot;,&amp;quot;v&amp;quot;:22.22222222222222,&amp;quot;e&amp;quot;:34},{&amp;quot;s&amp;quot;:0,&amp;quot;n&amp;quot;:&amp;quot;fsp&amp;quot;,&amp;quot;v&amp;quot;:&amp;quot;ss_presetShapeStyle1_textStyle&amp;quot;,&amp;quot;e&amp;quot;:34},{&amp;quot;s&amp;quot;:0,&amp;quot;n&amp;quot;:&amp;quot;fsp2&amp;quot;,&amp;quot;v&amp;quot;:&amp;quot;ss_presetShapeStyle1_textStyle&amp;quot;,&amp;quot;e&amp;quot;:34}]}&quot; data-lucid-type=&quot;application/vnd.lucid.text&quot;&gt;&lt;span style=&quot;color: rgb(58, 65, 74);&quot;&gt;&lt;font style=&quot;font-size: 12px;&quot;&gt;User navigates to Statistics tab&lt;/font&gt;&lt;/span&gt;&lt;/span&gt;" style="rounded=1;whiteSpace=wrap;html=1;" vertex="1" parent="4mDx-4fVDPnIyOVA0Ng8-31">
          <mxGeometry x="40" y="150" width="120" height="60" as="geometry" />
        </mxCell>
        <mxCell id="4mDx-4fVDPnIyOVA0Ng8-34" value="" style="edgeStyle=orthogonalEdgeStyle;rounded=0;orthogonalLoop=1;jettySize=auto;html=1;" edge="1" parent="4mDx-4fVDPnIyOVA0Ng8-31" source="4mDx-4fVDPnIyOVA0Ng8-35" target="4mDx-4fVDPnIyOVA0Ng8-33">
          <mxGeometry relative="1" as="geometry" />
        </mxCell>
        <mxCell id="4mDx-4fVDPnIyOVA0Ng8-35" value="" style="ellipse;whiteSpace=wrap;html=1;aspect=fixed;fillColor=#000000;" vertex="1" parent="4mDx-4fVDPnIyOVA0Ng8-31">
          <mxGeometry x="75" y="50" width="50" height="50" as="geometry" />
        </mxCell>
        <mxCell id="4mDx-4fVDPnIyOVA0Ng8-36" value="User selects the stats they wish to view" style="rounded=1;whiteSpace=wrap;html=1;" vertex="1" parent="4mDx-4fVDPnIyOVA0Ng8-31">
          <mxGeometry x="40" y="270" width="120" height="60" as="geometry" />
        </mxCell>
        <mxCell id="4mDx-4fVDPnIyOVA0Ng8-40" value="Program" style="swimlane;whiteSpace=wrap;html=1;" vertex="1" parent="1">
          <mxGeometry x="-300" y="29" width="480" height="1241" as="geometry" />
        </mxCell>
        <mxCell id="4mDx-4fVDPnIyOVA0Ng8-41" value="" style="edgeStyle=orthogonalEdgeStyle;rounded=0;orthogonalLoop=1;jettySize=auto;html=1;entryX=0.5;entryY=0;entryDx=0;entryDy=0;" edge="1" parent="4mDx-4fVDPnIyOVA0Ng8-40" source="4mDx-4fVDPnIyOVA0Ng8-42" target="4mDx-4fVDPnIyOVA0Ng8-112">
          <mxGeometry relative="1" as="geometry">
            <mxPoint x="285" y="350" as="targetPoint" />
          </mxGeometry>
        </mxCell>
        <mxCell id="4mDx-4fVDPnIyOVA0Ng8-42" value="System checks user authority" style="rounded=1;whiteSpace=wrap;html=1;" vertex="1" parent="4mDx-4fVDPnIyOVA0Ng8-40">
          <mxGeometry x="180" y="270" width="120" height="60" as="geometry" />
        </mxCell>
        <mxCell id="4mDx-4fVDPnIyOVA0Ng8-133" style="edgeStyle=none;rounded=0;orthogonalLoop=1;jettySize=auto;html=1;exitX=0;exitY=0.5;exitDx=0;exitDy=0;entryX=0.5;entryY=0;entryDx=0;entryDy=0;curved=0;jumpStyle=none;" edge="1" parent="4mDx-4fVDPnIyOVA0Ng8-40" source="4mDx-4fVDPnIyOVA0Ng8-112" target="4mDx-4fVDPnIyOVA0Ng8-116">
          <mxGeometry relative="1" as="geometry">
            <Array as="points">
              <mxPoint x="100" y="380" />
            </Array>
          </mxGeometry>
        </mxCell>
        <mxCell id="4mDx-4fVDPnIyOVA0Ng8-112" value="" style="rhombus;whiteSpace=wrap;html=1;" vertex="1" parent="4mDx-4fVDPnIyOVA0Ng8-40">
          <mxGeometry x="220" y="360" width="40" height="40" as="geometry" />
        </mxCell>
        <mxCell id="4mDx-4fVDPnIyOVA0Ng8-148" style="edgeStyle=none;rounded=0;orthogonalLoop=1;jettySize=auto;html=1;exitX=0.5;exitY=1;exitDx=0;exitDy=0;" edge="1" parent="4mDx-4fVDPnIyOVA0Ng8-40" source="4mDx-4fVDPnIyOVA0Ng8-116" target="4mDx-4fVDPnIyOVA0Ng8-143">
          <mxGeometry relative="1" as="geometry" />
        </mxCell>
        <mxCell id="4mDx-4fVDPnIyOVA0Ng8-116" value="System checks user authority" style="rounded=1;whiteSpace=wrap;html=1;" vertex="1" parent="4mDx-4fVDPnIyOVA0Ng8-40">
          <mxGeometry x="40" y="421" width="120" height="60" as="geometry" />
        </mxCell>
        <mxCell id="4mDx-4fVDPnIyOVA0Ng8-129" value="" style="group" vertex="1" connectable="0" parent="4mDx-4fVDPnIyOVA0Ng8-40">
          <mxGeometry x="215" y="1161" width="50" height="50" as="geometry" />
        </mxCell>
        <mxCell id="4mDx-4fVDPnIyOVA0Ng8-130" value="" style="ellipse;whiteSpace=wrap;html=1;aspect=fixed;fillColor=none;strokeWidth=3;movable=1;resizable=1;rotatable=1;deletable=1;editable=1;locked=0;connectable=1;" vertex="1" parent="4mDx-4fVDPnIyOVA0Ng8-129">
          <mxGeometry width="50" height="50" as="geometry" />
        </mxCell>
        <mxCell id="4mDx-4fVDPnIyOVA0Ng8-131" value="" style="ellipse;whiteSpace=wrap;html=1;aspect=fixed;fillColor=#000000;movable=1;resizable=1;rotatable=1;deletable=1;editable=1;locked=0;connectable=1;" vertex="1" parent="4mDx-4fVDPnIyOVA0Ng8-129">
          <mxGeometry x="7.5" y="7.5" width="35" height="35" as="geometry" />
        </mxCell>
        <mxCell id="4mDx-4fVDPnIyOVA0Ng8-143" value="System fetches limited statistics" style="rounded=1;whiteSpace=wrap;html=1;" vertex="1" parent="4mDx-4fVDPnIyOVA0Ng8-40">
          <mxGeometry x="40" y="511" width="120" height="60" as="geometry" />
        </mxCell>
        <mxCell id="4mDx-4fVDPnIyOVA0Ng8-144" value="System checks user authority" style="rounded=1;whiteSpace=wrap;html=1;" vertex="1" parent="4mDx-4fVDPnIyOVA0Ng8-40">
          <mxGeometry x="320" y="511" width="120" height="60" as="geometry" />
        </mxCell>
        <mxCell id="4mDx-4fVDPnIyOVA0Ng8-147" style="edgeStyle=none;rounded=0;orthogonalLoop=1;jettySize=auto;html=1;exitX=0.5;exitY=1;exitDx=0;exitDy=0;entryX=0.5;entryY=0;entryDx=0;entryDy=0;" edge="1" parent="4mDx-4fVDPnIyOVA0Ng8-40" source="4mDx-4fVDPnIyOVA0Ng8-145" target="4mDx-4fVDPnIyOVA0Ng8-144">
          <mxGeometry relative="1" as="geometry" />
        </mxCell>
        <mxCell id="4mDx-4fVDPnIyOVA0Ng8-145" value="System fetches unrestricted" style="rounded=1;whiteSpace=wrap;html=1;" vertex="1" parent="4mDx-4fVDPnIyOVA0Ng8-40">
          <mxGeometry x="320" y="421" width="120" height="60" as="geometry" />
        </mxCell>
        <mxCell id="4mDx-4fVDPnIyOVA0Ng8-146" style="edgeStyle=none;rounded=0;orthogonalLoop=1;jettySize=auto;html=1;exitX=1;exitY=0.5;exitDx=0;exitDy=0;entryX=0.459;entryY=-0.119;entryDx=0;entryDy=0;entryPerimeter=0;" edge="1" parent="4mDx-4fVDPnIyOVA0Ng8-40" source="4mDx-4fVDPnIyOVA0Ng8-112" target="4mDx-4fVDPnIyOVA0Ng8-145">
          <mxGeometry relative="1" as="geometry">
            <Array as="points">
              <mxPoint x="375" y="380" />
            </Array>
          </mxGeometry>
        </mxCell>
        <mxCell id="4mDx-4fVDPnIyOVA0Ng8-149" value="Else" style="text;html=1;align=center;verticalAlign=middle;resizable=0;points=[];autosize=1;strokeColor=none;fillColor=none;" vertex="1" parent="4mDx-4fVDPnIyOVA0Ng8-40">
          <mxGeometry x="140" y="351" width="50" height="30" as="geometry" />
        </mxCell>
        <mxCell id="4mDx-4fVDPnIyOVA0Ng8-150" value="[User is admin]" style="text;html=1;align=center;verticalAlign=middle;resizable=0;points=[];autosize=1;strokeColor=none;fillColor=none;" vertex="1" parent="4mDx-4fVDPnIyOVA0Ng8-40">
          <mxGeometry x="275" y="351" width="100" height="30" as="geometry" />
        </mxCell>
        <mxCell id="4mDx-4fVDPnIyOVA0Ng8-60" style="edgeStyle=orthogonalEdgeStyle;rounded=0;orthogonalLoop=1;jettySize=auto;html=1;exitX=1;exitY=0.5;exitDx=0;exitDy=0;" edge="1" parent="1" source="4mDx-4fVDPnIyOVA0Ng8-36" target="4mDx-4fVDPnIyOVA0Ng8-42">
          <mxGeometry relative="1" as="geometry" />
        </mxCell>
      </root>
    </mxGraphModel>
  </diagram>
</mxfile>
